<?xml version="1.0" encoding="UTF-8"?>
<svg xmlns="http://www.w3.org/2000/svg" viewBox="0 0 760 520" role="img" aria-labelledby="title desc">
<title id="title">基督城整備節點圖</title><desc id="desc">Upper Riccarton 基地放射：行政、看車、右駕訓練、路測與生日專案</desc>
<style>
  .bg{fill:#f8fafc}.land{fill:#e2e8f0;stroke:#94a3b8;stroke-width:2}.route{fill:none;stroke:#dc2626;stroke-width:4;stroke-linecap:round;stroke-linejoin:round}.minor{fill:none;stroke:#64748b;stroke-width:2;stroke-dasharray:5 5}.node text{font:700 13px -apple-system,BlinkMacSystemFont,'Noto Sans TC','Microsoft JhengHei',Arial,sans-serif;fill:#0f172a;paint-order:stroke;stroke:#fff;stroke-width:4px;stroke-linejoin:round}.legend text,.caption{font:700 13px -apple-system,BlinkMacSystemFont,'Noto Sans TC','Microsoft JhengHei',Arial,sans-serif;fill:#334155}.title{font:900 22px -apple-system,BlinkMacSystemFont,'Noto Sans TC','Microsoft JhengHei',Arial,sans-serif;fill:#0f172a}.subtitle{font:600 13px -apple-system,BlinkMacSystemFont,'Noto Sans TC','Microsoft JhengHei',Arial,sans-serif;fill:#475569}.water{fill:#dbeafe}.grid{stroke:#e2e8f0;stroke-width:1}
</style>
<rect class="bg" width="760" height="520" rx="16"/>
<text class="title" x="24" y="32">基督城整備節點圖</text><text class="subtitle" x="24" y="54">Upper Riccarton 基地放射：行政、看車、右駕訓練、路測與生日專案</text>
<g transform="translate(0,10)">
<rect class="water" x="24" y="62" width="712" height="414" rx="14" opacity=".62"/>
<polygon class="land" points="226,-13 799,97 900,345 698,482 361,564 125,400 92,152"/>
<path class="route" d="M 486 353 L 496 353 L 509 355 L 449 336 L 486 353 L 621 427 L 486 353 L 573 75 L 486 353"/>
<path class="minor" d="M 486 353 L 543 372"/>
<path class="minor" d="M 486 353 L 506 353"/>
<g class="node stay"><circle cx="486" cy="353" r="5" fill="#1d4ed8" stroke="#fff" stroke-width="2"/><text x="494" y="357">Upper Riccarton</text></g>
<g class="node poi"><circle cx="496" cy="353" r="5" fill="#f59e0b" stroke="#fff" stroke-width="2"/><text x="504" y="357">Westfield</text></g>
<g class="node poi"><circle cx="509" cy="355" r="5" fill="#f59e0b" stroke="#fff" stroke-width="2"/><text x="517" y="359">Moorhouse</text></g>
<g class="node poi"><circle cx="449" cy="336" r="5" fill="#f59e0b" stroke="#fff" stroke-width="2"/><text x="457" y="340">McLeans</text></g>
<g class="node poi"><circle cx="543" cy="372" r="5" fill="#f59e0b" stroke="#fff" stroke-width="2"/><text x="551" y="376">Lyttelton/Sumner</text></g>
<g class="node poi"><circle cx="621" cy="427" r="5" fill="#f59e0b" stroke="#fff" stroke-width="2"/><text x="629" y="431">Akaroa</text></g>
<g class="node poi"><circle cx="573" cy="75" r="5" fill="#f59e0b" stroke="#fff" stroke-width="2"/><text x="581" y="79">Hanmer</text></g>
<g class="node poi"><circle cx="506" cy="353" r="5" fill="#f59e0b" stroke="#fff" stroke-width="2"/><text x="514" y="357">Riverside</text></g>
</g>
<g class="legend" transform="translate(24 492)"><circle cx="0" cy="-4" r="5" fill="#1d4ed8"/><text x="10" y="0">住宿/基地</text><circle cx="94" cy="-4" r="5" fill="#f59e0b"/><text x="104" y="0">景點/活動</text><line x1="194" y1="-4" x2="224" y2="-4" class="route"/><text x="232" y="0">主行車線</text></g>
</svg>