<?xml version="1.0" encoding="UTF-8"?>
<svg xmlns="http://www.w3.org/2000/svg" viewBox="0 0 760 520" role="img" aria-labelledby="title desc">
<title id="title">北島節點與住宿環線</title>
<desc id="desc">Auckland Airport 到 Rotorua、Taupo、Ohakune、Waitomo、Hamilton、Huntly 後回 Auckland Airport 的近似實際行車環線。</desc>
<style>
.bg{fill:#f8fafc}.sea{fill:#dbeafe}.land{fill:#e2e8f0;stroke:#94a3b8;stroke-width:2}.route{fill:none;stroke:#2563eb;stroke-width:6;stroke-linecap:round;stroke-linejoin:round}.return{fill:none;stroke:#2563eb;stroke-width:4;stroke-linecap:round;stroke-linejoin:round;stroke-dasharray:8 7}.road{fill:none;stroke:#94a3b8;stroke-width:1.5;stroke-dasharray:5 6}.node text{font:700 13px -apple-system,BlinkMacSystemFont,"Noto Sans TC","Microsoft JhengHei",Arial,sans-serif;fill:#0f172a;paint-order:stroke;stroke:#fff;stroke-width:4px;stroke-linejoin:round}.title{font:900 22px -apple-system,BlinkMacSystemFont,"Noto Sans TC","Microsoft JhengHei",Arial,sans-serif;fill:#0f172a}.subtitle,.legend text{font:700 13px -apple-system,BlinkMacSystemFont,"Noto Sans TC","Microsoft JhengHei",Arial,sans-serif;fill:#334155}
</style>
<rect class="bg" width="760" height="520" rx="16"/>
<text class="title" x="24" y="32">北島節點與住宿環線</text>
<text class="subtitle" x="24" y="54">AKL → Rotorua/Taupo/Tongariro → Waitomo/Hamilton/Huntly → AKL</text>
<rect class="sea" x="24" y="72" width="712" height="404" rx="14" opacity=".68"/>
<path class="land" d="M236 82 C292 66 348 82 392 112 C452 154 520 176 596 224 C666 268 694 338 650 392 C598 456 516 486 418 484 C312 480 210 448 148 386 C101 338 92 286 122 236 C142 202 146 178 124 143 C154 113 188 95 236 82 Z"/>
<path class="road" d="M294 112 C318 148 342 176 372 205"/>
<path class="road" d="M372 205 C424 221 487 247 558 289"/>
<path class="road" d="M310 389 C292 353 273 321 247 300"/>
<path class="route" d="M306 116 C318 147 333 174 361 199 C407 218 483 251 555 292 C592 314 598 349 573 376 C551 399 523 409 489 416 C452 425 416 445 371 449 C336 425 312 400 293 361 C271 329 245 311 221 296 C247 269 282 246 326 229 C347 217 360 207 361 199 C344 174 323 143 306 116"/>
<path class="return" d="M221 296 C251 267 294 239 361 199"/>
<g class="node stay"><circle cx="306" cy="116" r="6" fill="#1d4ed8" stroke="#fff" stroke-width="2"/><text x="316" y="120">AKL Airport</text></g>
<g class="node stay"><circle cx="555" cy="292" r="6" fill="#1d4ed8" stroke="#fff" stroke-width="2"/><text x="565" y="296">Rotorua</text></g>
<g class="node stay"><circle cx="573" cy="376" r="6" fill="#1d4ed8" stroke="#fff" stroke-width="2"/><text x="583" y="380">Taupo</text></g>
<g class="node stay"><circle cx="489" cy="416" r="6" fill="#1d4ed8" stroke="#fff" stroke-width="2"/><text x="499" y="420">Turangi</text></g>
<g class="node stay"><circle cx="371" cy="449" r="6" fill="#1d4ed8" stroke="#fff" stroke-width="2"/><text x="381" y="453">Ohakune</text></g>
<g class="node stay"><circle cx="247" cy="300" r="6" fill="#1d4ed8" stroke="#fff" stroke-width="2"/><text x="118" y="305">Fat Owl / Piopio</text></g>
<g class="node stay"><circle cx="221" cy="296" r="6" fill="#1d4ed8" stroke="#fff" stroke-width="2"/><text x="118" y="288">Juno Hall / Waitomo</text></g>
<g class="node stay"><circle cx="361" cy="199" r="6" fill="#1d4ed8" stroke="#fff" stroke-width="2"/><text x="371" y="203">Hamilton</text></g>
<g class="node stay"><circle cx="326" cy="172" r="6" fill="#1d4ed8" stroke="#fff" stroke-width="2"/><text x="336" y="176">Huntly</text></g>
<g class="node poi"><circle cx="577" cy="327" r="5" fill="#f59e0b" stroke="#fff" stroke-width="2"/><text x="587" y="331">Waikite</text></g>
<g class="node poi"><circle cx="557" cy="361" r="5" fill="#f59e0b" stroke="#fff" stroke-width="2"/><text x="567" y="365">Wairakei</text></g>
<g class="node poi"><circle cx="233" cy="290" r="5" fill="#f59e0b" stroke="#fff" stroke-width="2"/><text x="150" y="274">Spellbound</text></g>
<g class="node poi"><circle cx="375" cy="216" r="5" fill="#f59e0b" stroke="#fff" stroke-width="2"/><text x="385" y="220">Hamilton Gardens</text></g>
<g class="node poi"><circle cx="292" cy="156" r="5" fill="#f59e0b" stroke="#fff" stroke-width="2"/><text x="302" y="160">Hakarimata</text></g>
<g class="legend" transform="translate(28 494)"><circle cx="0" cy="-4" r="5" fill="#1d4ed8"/><text x="10" y="0">住宿</text><circle cx="68" cy="-4" r="5" fill="#f59e0b"/><text x="78" y="0">景點/溫泉</text><line x1="170" y1="-4" x2="215" y2="-4" class="route"/><text x="225" y="0">主行車環線</text><line x1="330" y1="-4" x2="370" y2="-4" class="return"/><text x="380" y="0">回程段</text></g>
</svg>
