<?xml version="1.0" encoding="UTF-8"?>
<svg xmlns="http://www.w3.org/2000/svg" viewBox="0 0 760 520" role="img" aria-labelledby="title desc">
<title id="title">南島大環線節點圖</title><desc id="desc">Christchurch → West Coast → Haast/Wanaka/Te Anau → Dunedin/Oamaru/Mackenzie → Christchurch</desc>
<style>
  .bg{fill:#f8fafc}.land{fill:#e2e8f0;stroke:#94a3b8;stroke-width:2}.route{fill:none;stroke:#dc2626;stroke-width:4;stroke-linecap:round;stroke-linejoin:round}.minor{fill:none;stroke:#64748b;stroke-width:2;stroke-dasharray:5 5}.node text{font:700 13px -apple-system,BlinkMacSystemFont,'Noto Sans TC','Microsoft JhengHei',Arial,sans-serif;fill:#0f172a;paint-order:stroke;stroke:#fff;stroke-width:4px;stroke-linejoin:round}.legend text,.caption{font:700 13px -apple-system,BlinkMacSystemFont,'Noto Sans TC','Microsoft JhengHei',Arial,sans-serif;fill:#334155}.title{font:900 22px -apple-system,BlinkMacSystemFont,'Noto Sans TC','Microsoft JhengHei',Arial,sans-serif;fill:#0f172a}.subtitle{font:600 13px -apple-system,BlinkMacSystemFont,'Noto Sans TC','Microsoft JhengHei',Arial,sans-serif;fill:#475569}.water{fill:#dbeafe}.grid{stroke:#e2e8f0;stroke-width:1}
</style>
<rect class="bg" width="760" height="520" rx="16"/>
<text class="title" x="24" y="32">南島大環線節點圖</text><text class="subtitle" x="24" y="54">Christchurch → West Coast → Haast/Wanaka/Te Anau → Dunedin/Oamaru/Mackenzie → Christchurch</text>
<g transform="translate(0,10)">
<rect class="water" x="24" y="62" width="712" height="414" rx="14" opacity=".62"/>
<polygon class="land" points="18,1 568,52 798,155 728,318 538,482 228,502 68,380 98,195"/>
<path class="route" d="M 655 168 L 554 107 L 519 57 L 494 85 L 416 154 L 302 204 L 327 278 L 312 288 L 264 321 L 270 352 L 170 361 L 292 431 L 433 408 L 496 329 L 406 243 L 408 189 L 446 216 L 481 226 L 523 256 L 522 225 L 655 168"/>

<g class="node stay"><circle cx="655" cy="168" r="5" fill="#1d4ed8" stroke="#fff" stroke-width="2"/><text x="663" y="172">Christchurch</text></g>
<g class="node stay"><circle cx="519" cy="57" r="5" fill="#1d4ed8" stroke="#fff" stroke-width="2"/><text x="527" y="61">Greymouth</text></g>
<g class="node stay"><circle cx="416" cy="154" r="5" fill="#1d4ed8" stroke="#fff" stroke-width="2"/><text x="424" y="158">Franz Josef</text></g>
<g class="node stay"><circle cx="302" cy="204" r="5" fill="#1d4ed8" stroke="#fff" stroke-width="2"/><text x="310" y="208">Haast</text></g>
<g class="node stay"><circle cx="327" cy="278" r="5" fill="#1d4ed8" stroke="#fff" stroke-width="2"/><text x="335" y="282">Lake Hawea</text></g>
<g class="node stay"><circle cx="270" cy="352" r="5" fill="#1d4ed8" stroke="#fff" stroke-width="2"/><text x="278" y="356">Kingston</text></g>
<g class="node stay"><circle cx="170" cy="361" r="5" fill="#1d4ed8" stroke="#fff" stroke-width="2"/><text x="178" y="365">Te Anau</text></g>
<g class="node stay"><circle cx="433" cy="408" r="5" fill="#1d4ed8" stroke="#fff" stroke-width="2"/><text x="441" y="412">Mosgiel</text></g>
<g class="node stay"><circle cx="496" cy="329" r="5" fill="#1d4ed8" stroke="#fff" stroke-width="2"/><text x="504" y="333">Oamaru</text></g>
<g class="node stay"><circle cx="406" cy="243" r="5" fill="#1d4ed8" stroke="#fff" stroke-width="2"/><text x="414" y="247">Twizel</text></g>
<g class="node stay"><circle cx="481" cy="226" r="5" fill="#1d4ed8" stroke="#fff" stroke-width="2"/><text x="489" y="230">Fairlie</text></g>
<g class="node stay"><circle cx="523" cy="256" r="5" fill="#1d4ed8" stroke="#fff" stroke-width="2"/><text x="531" y="260">Timaru</text></g>
<g class="node poi"><circle cx="570" cy="136" r="5" fill="#f59e0b" stroke="#fff" stroke-width="2"/><text x="578" y="140">Castle Hill</text></g>
<g class="node poi"><circle cx="555" cy="96" r="5" fill="#f59e0b" stroke="#fff" stroke-width="2"/><text x="563" y="100">Otira</text></g>
<g class="node poi"><circle cx="330" cy="230" r="5" fill="#f59e0b" stroke="#fff" stroke-width="2"/><text x="338" y="234">Blue Pools</text></g>
<g class="node poi"><circle cx="191" cy="313" r="5" fill="#f59e0b" stroke="#fff" stroke-width="2"/><text x="199" y="317">Milford Rd</text></g>
<g class="node poi"><circle cx="481" cy="354" r="5" fill="#f59e0b" stroke="#fff" stroke-width="2"/><text x="489" y="358">Moeraki</text></g>
<g class="node poi"><circle cx="447" cy="217" r="5" fill="#f59e0b" stroke="#fff" stroke-width="2"/><text x="455" y="221">Tekapo Springs</text></g>
<g class="node poi"><circle cx="600" cy="191" r="5" fill="#f59e0b" stroke="#fff" stroke-width="2"/><text x="608" y="195">Rakaia</text></g>
</g>
<g class="legend" transform="translate(24 492)"><circle cx="0" cy="-4" r="5" fill="#1d4ed8"/><text x="10" y="0">住宿/基地</text><circle cx="94" cy="-4" r="5" fill="#f59e0b"/><text x="104" y="0">景點/活動</text><line x1="194" y1="-4" x2="224" y2="-4" class="route"/><text x="232" y="0">主行車線</text></g>
</svg>